<svg id="Layer_1" data-name="Layer 1" xmlns="http://www.w3.org/2000/svg" viewBox="0 0 278.7 133.59"><defs><style>.cls-1{fill:#32549a;}</style></defs><path class="cls-1" d="M65.15,147.37H55.92v62.34H67.24v3.53H10.65v-3.53H22V86.52H10.65V83H63.23q22.64,0,32.12,2.52t13.32,6Q117,98.8,117,114.62t-7.32,22.61q-7.3,6.79-22.28,8.09v.56q14.1,2.06,19.67,8.93t5.57,23.08v9.86q0,9.67,1,13t4.09,3.35a5.56,5.56,0,0,0,5-3.08q1.83-3.06,3.4-12.93l3,.37q-1.92,15.82-6.7,21.22t-19.07,5.39Q89,215.1,83,207.94t-6-26.89V167.47q0-10.42-2.52-15.26T65.15,147.37ZM55.92,86.52v57.31h5.57q9.91,0,14.71-6.51T81,116.11v-5.4Q81,96,76.37,91.27T61.66,86.52Z" transform="translate(-10.65 -82.32)"/><path class="cls-1" d="M143.41,198.16q-14.34-17.76-14.35-49.4t16.13-48.47q16.11-16.83,41-16.82,50.49,0,48.48,60.88H172v10.41q0,26.18,5.56,39.52t19.35,13.36q25.79,0,33.8-33.12l4,.81q-4.23,19.21-15.23,29.9t-33,10.68Q157.75,215.91,143.41,198.16ZM172.2,139h22.91V125.92q0-21.63-2.11-29.5t-8.45-7.88q-6.35,0-9.34,8.41t-3,29Z" transform="translate(-10.65 -82.32)"/><path class="cls-1" d="M269.67,128.34q-9.68,0-14.46-6.74t-4.78-16.4q0-9.65,5-16.27t14.12-6.61q9.1,0,14.45,5.56t5.34,16.66q0,11.11-5,17.46T269.67,128.34Zm0,87.55q-9.68,0-14.46-6.75t-4.78-16.4q0-9.65,5-16.26t14.12-6.61q9.1,0,14.45,5.55t5.34,16.66q0,11.11-5,17.46T269.67,215.89Z" transform="translate(-10.65 -82.32)"/></svg>