<svg id="Layer_1" data-name="Layer 1" xmlns="http://www.w3.org/2000/svg" viewBox="0 0 287.41 197.05"><defs><style>.cls-1,.cls-2{fill:#32549a;}.cls-2{font-size:51.1px;font-family:Hahmlet-Medium, Hahmlet;font-weight:500;}</style></defs><path class="cls-1" d="M75.37,109.17H67.18v55.31h10v3.14H27v-3.14h10V55.17H27V52H73.67q20.08,0,28.5,2.23c5.62,1.48,9.55,3.27,11.82,5.36q7.42,6.43,7.42,20.48t-6.49,20.06q-6.49,6-19.77,7.18v.5q12.51,1.82,17.45,7.92t4.94,20.48V145q0,8.58.86,11.56t3.62,3a4.94,4.94,0,0,0,4.41-2.73q1.62-2.72,3-11.47l2.63.33q-1.71,14-5.95,18.82t-16.92,4.79q-12.66,0-18-6.36t-5.33-23.86V127q0-9.24-2.23-13.54T75.37,109.17Zm-8.19-54V106h4.95q8.81,0,13.05-5.78t4.25-18.82V76.64q0-13.05-4.1-17.26t-13-4.21Z" transform="translate(-6.96 -51.45)"/><path class="cls-1" d="M144.82,154.23q-12.73-15.75-12.73-43.83t14.3-43Q160.7,52.47,182.8,52.46q44.79,0,43,54H170.17v9.24q0,23.22,4.93,35.07t17.17,11.84q22.89,0,30-29.38l3.55.71Q222.06,151,212.3,160.51T183,170Q157.55,170,144.82,154.23Zm25.55-52.48h20.32V90.14q0-19.2-1.87-26.19c-1.26-4.65-3.75-7-7.5-7s-6.51,2.48-8.29,7.46S170.37,78,170.37,90.14Z" transform="translate(-6.96 -51.45)"/><path class="cls-1" d="M256.85,92.28q-8.58,0-12.82-6a24.43,24.43,0,0,1-4.25-14.55,23.21,23.21,0,0,1,4.44-14.43q4.44-5.87,12.53-5.87t12.83,4.93q4.73,4.92,4.73,14.78t-4.44,15.49Q265.43,92.29,256.85,92.28Zm0,77.69q-8.58,0-12.82-6a24.43,24.43,0,0,1-4.25-14.55A23.21,23.21,0,0,1,244.22,135q4.44-5.87,12.53-5.87t12.83,4.93q4.73,4.92,4.73,14.78t-4.44,15.49Q265.43,170,256.85,170Z" transform="translate(-6.96 -51.45)"/><text class="cls-2" transform="translate(0 183.51) scale(0.93 1)">interior film</text></svg>