<svg id="Layer_1" data-name="Layer 1" xmlns="http://www.w3.org/2000/svg" viewBox="0 0 278.55 190.98"><defs><style>.cls-1,.cls-2{fill:#fff;}.cls-2{font-size:49.52px;font-family:Hahmlet-Medium, Hahmlet;font-weight:500;}</style></defs><path class="cls-1" d="M78.34,65H70.4v53.61h9.74v3H31.48v-3h9.73V12.68H31.48v-3H76.7q19.45,0,27.62,2.16T115.77,17Q123,23.24,123,36.84t-6.29,19.44q-6.28,5.85-19.16,7v.48q12.12,1.77,16.91,7.69t4.8,19.84v8.48q0,8.33.82,11.2a3.45,3.45,0,0,0,3.52,2.88,4.77,4.77,0,0,0,4.26-2.64q1.58-2.64,2.92-11.12l2.55.32q-1.65,13.6-5.76,18.24t-16.4,4.65q-12.27,0-17.44-6.17T88.52,94V82.29q0-9-2.17-13.12T78.34,65ZM70.4,12.68V62h4.8q8.53,0,12.65-5.6T92,38.12V33.48q0-12.64-4-16.72T75.35,12.68Z" transform="translate(-12.04 -9.07)"/><path class="cls-1" d="M145.64,108.68Q133.31,93.41,133.31,66.2t13.87-41.68Q161,10,182.46,10.05q43.41,0,41.69,52.36H170.22v9q0,22.52,4.78,34t16.64,11.48q22.19,0,29.06-28.47l3.45.69q-3.65,16.53-13.1,25.72T182.65,124Q158,124,145.64,108.68Zm24.77-50.87h19.7V46.56q0-18.6-1.82-25.37T181,14.41q-5.45,0-8,7.24t-2.58,24.91Z" transform="translate(-12.04 -9.07)"/><path class="cls-1" d="M254.23,48.64q-8.32,0-12.43-5.8a23.66,23.66,0,0,1-4.12-14.1,22.52,22.52,0,0,1,4.31-14q4.29-5.68,12.14-5.68t12.43,4.77q4.59,4.79,4.59,14.33t-4.3,15Q262.55,48.64,254.23,48.64Zm0,75.29q-8.32,0-12.43-5.8a23.71,23.71,0,0,1-4.12-14.1A22.5,22.5,0,0,1,242,90q4.29-5.69,12.14-5.69t12.43,4.78q4.59,4.77,4.59,14.33t-4.3,15Q262.55,123.93,254.23,123.93Z" transform="translate(-12.04 -9.07)"/><text class="cls-2" transform="translate(0 177.85) scale(0.93 1)">interior film</text></svg>