<svg id="Layer_1" data-name="Layer 1" xmlns="http://www.w3.org/2000/svg" viewBox="0 0 319.38 791"><defs><style>.cls-1,.cls-2{fill:#f59b1b;}.cls-1{stroke:#010101;stroke-miterlimit:10;stroke-width:2px;}.cls-3{fill:#010101;}</style></defs><path class="cls-1" d="M293.54,667.93a12.75,12.75,0,0,1-6.09-24c.92-.51,19.86-11.33,20.37-34.23.52-23.25-18.46-74.45-151.4-156-62-38.06-104.19-85.05-125.33-139.64-17.64-45.56-19.91-95.65-6.56-144.87C34.73,131.58,53.79,96,78.19,69c24.56-27.21,51.32-42.47,75.35-43a12.75,12.75,0,1,1,.52,25.5c-33.86.7-85.27,52-104.92,124.37C36.41,222.8,22.68,341.71,169.76,432c110.08,67.56,165.1,127.75,163.54,178.9-1.15,37.76-32.45,54.85-33.78,55.56A12.66,12.66,0,0,1,293.54,667.93Z" transform="translate(-14.95 -25)"/><ellipse class="cls-2" cx="165.08" cy="670.71" rx="120.77" ry="118.29"/><path class="cls-3" d="M59.07,695.71A118.42,118.42,0,0,1,94.8,611.34,122,122,0,0,1,134,585.59a123.25,123.25,0,0,1,92.32-.4,122.35,122.35,0,0,1,39.61,25.52,119.37,119.37,0,0,1,26.9,38.75,118.22,118.22,0,0,1,.32,92.63,120,120,0,0,1-26.75,39.11,122.89,122.89,0,0,1-39.73,25.89,123.34,123.34,0,0,1-93-.39,122,122,0,0,1-39.26-26.16C71.85,758.36,58.75,727.12,59.07,695.71Zm.4,0A114.66,114.66,0,0,0,95.84,779a122.24,122.24,0,0,0,167.76-.66,116.09,116.09,0,0,0,26.22-37.67,114.56,114.56,0,0,0,.31-90.08,116.61,116.61,0,0,0-26.05-38,119.89,119.89,0,0,0-38.66-25.26,121.87,121.87,0,0,0-130,24.62,115.22,115.22,0,0,0-35.92,83.77Z" transform="translate(-14.95 -25)"/><path class="cls-2" d="M72.59,695.71S85,768.47,164.2,800.14" transform="translate(-14.95 -25)"/><path class="cls-3" d="M72.79,695.68a116.81,116.81,0,0,0,5.48,17.12,153.68,153.68,0,0,0,28.41,45.34c1,1.08,2,2.21,3,3.26l3.16,3.15c1.07,1,2.19,2,3.28,3l1.65,1.51,1.71,1.43c4.48,3.9,9.24,7.46,14,11,2.44,1.7,4.83,3.47,7.37,5l3.75,2.43q1.92,1.13,3.84,2.3l1.92,1.16c.64.39,1.31.72,2,1.09l3.92,2.2c2.62,1.46,5.33,2.75,8,4.24l-.14.37c-2.88-.93-5.77-1.86-8.6-3s-5.65-2.24-8.35-3.63c-1.38-.65-2.75-1.31-4.11-2l-4-2.2c-2.69-1.44-5.21-3.15-7.8-4.76a130.09,130.09,0,0,1-27-24.53A150,150,0,0,1,84.2,730a147.74,147.74,0,0,1-7.08-16.72,109.12,109.12,0,0,1-4.72-17.49Z" transform="translate(-14.95 -25)"/><path class="cls-2" d="M87,633.84s-2,101,108.89,161.35" transform="translate(-14.95 -25)"/><path class="cls-3" d="M87.19,633.85A138.2,138.2,0,0,0,90.5,659a185.52,185.52,0,0,0,7.18,24.29A187.75,187.75,0,0,0,108,706.35a187.3,187.3,0,0,0,29.28,40.95l2.13,2.33c.72.76,1.48,1.49,2.21,2.24l4.45,4.46,4.6,4.3,2.29,2.17,2.38,2.07,4.74,4.17c1.6,1.36,3.28,2.63,4.9,4s3.23,2.71,4.95,3.93l5.07,3.79c.85.62,1.67,1.29,2.54,1.88l2.61,1.8,5.21,3.63c3.49,2.39,7.11,4.58,10.63,7l-.19.35c-1.91-.93-3.82-1.87-5.71-2.84s-3.83-1.89-5.68-2.94l-5.54-3.2-2.77-1.61c-.91-.55-1.79-1.16-2.69-1.73-3.58-2.32-7.17-4.66-10.58-7.24-1.71-1.27-3.45-2.53-5.13-3.85l-5-4.06-2.47-2.06-2.37-2.16-4.72-4.37-4.48-4.62c-.73-.77-1.49-1.53-2.22-2.32L134.33,750a198.37,198.37,0,0,1-15.7-20.3,183.47,183.47,0,0,1-13-22.12,182.38,182.38,0,0,1-16.35-48.33,138.64,138.64,0,0,1-2.53-25.37Z" transform="translate(-14.95 -25)"/><path class="cls-2" d="M125.59,604.14s-12.86,124.73,103,181.15" transform="translate(-14.95 -25)"/><path class="cls-3" d="M125.79,604.17c-.32,4.58-.31,9.19-.19,13.79s.42,9.2.89,13.77a211.65,211.65,0,0,0,4.45,27.19,194.11,194.11,0,0,0,19.52,51.18,180.12,180.12,0,0,0,15.34,22.65l4.35,5.27c.71.89,1.48,1.73,2.26,2.56l2.32,2.51,2.29,2.53c.75.86,1.61,1.61,2.4,2.43l4.84,4.83c1.67,1.55,3.38,3.06,5.07,4.59l2.55,2.29,2.66,2.16,5.32,4.32,5.54,4c3.64,2.79,7.57,5.15,11.4,7.71,1.88,1.33,3.91,2.4,5.88,3.59s4,2.33,5.95,3.53l-.17.36q-3.17-1.4-6.32-2.87c-2.08-1-4.24-1.88-6.25-3-4-2.25-8.21-4.34-12.06-7-2-1.25-3.94-2.48-5.86-3.79l-5.62-4.14c-.94-.69-1.88-1.38-2.8-2.09l-2.67-2.25c-1.78-1.51-3.58-3-5.34-4.53a161.09,161.09,0,0,1-18.87-20.63,194.13,194.13,0,0,1-15-23.54A196.8,196.8,0,0,1,129,659.34a212.84,212.84,0,0,1-3.7-27.51c-.33-4.61-.49-9.24-.49-13.86s.14-9.24.6-13.85Z" transform="translate(-14.95 -25)"/><path class="cls-2" d="M195.88,584.58S137,623.12,130.3,660.65" transform="translate(-14.95 -25)"/><path class="cls-3" d="M196,584.75q-10.37,7.54-20,16a229,229,0,0,0-18.33,17.72,195.61,195.61,0,0,0-15.63,19.86,85.39,85.39,0,0,0-11.57,22.34l-.4-.07a42.81,42.81,0,0,1,2.81-12.73,66.34,66.34,0,0,1,5.81-11.73,80.56,80.56,0,0,1,7.76-10.47q4.32-4.86,8.91-9.42a234.73,234.73,0,0,1,19.36-17c3.38-2.64,6.83-5.2,10.32-7.68s7.05-4.88,10.7-7.13Z" transform="translate(-14.95 -25)"/><path class="cls-2" d="M228.54,604.14s-71.22,27.06-90,83.82" transform="translate(-14.95 -25)"/><path class="cls-3" d="M228.61,604.33a204.26,204.26,0,0,0-27.74,15,190.56,190.56,0,0,0-25.11,18.86,173.35,173.35,0,0,0-21,23.05l-2.35,3.1-2.22,3.2c-.37.54-.76,1.06-1.11,1.6l-1,1.65c-.67,1.11-1.43,2.18-2.07,3.31-2.7,4.47-5,9.14-7.3,13.93l-.38-.13a76.76,76.76,0,0,1,5.19-15.12,93.88,93.88,0,0,1,8-13.9,95,95,0,0,1,10.3-12.32c3.79-3.78,7.72-7.4,11.83-10.79a192.88,192.88,0,0,1,26.16-18.15q6.9-4,14-7.42c4.78-2.28,9.62-4.42,14.59-6.23Z" transform="translate(-14.95 -25)"/><path class="cls-2" d="M166.83,737.26s86.46-31.16,107.25-86.59" transform="translate(-14.95 -25)"/><path class="cls-3" d="M166.76,737.07a291.94,291.94,0,0,0,31.73-15.41A253.14,253.14,0,0,0,228,702.6a166.16,166.16,0,0,0,13.45-11.22c4.27-4,8.47-8,12.38-12.26,1-1,2-2.14,2.92-3.23s1.93-2.18,2.82-3.32,1.83-2.25,2.72-3.4,1.71-2.35,2.58-3.51a121.4,121.4,0,0,0,9-15.06l.37.14a72.82,72.82,0,0,1-7,16.43,96.7,96.7,0,0,1-10.42,14.61c-7.78,9.14-17.24,16.59-26.94,23.41q-7.28,5.13-14.94,9.65t-15.54,8.58q-7.92,4-16.06,7.54c-5.42,2.35-10.89,4.57-16.48,6.49Z" transform="translate(-14.95 -25)"/><path class="cls-2" d="M183.52,754.92s62.84,5.63,101.45-72.57" transform="translate(-14.95 -25)"/><path class="cls-3" d="M183.53,754.72a74.11,74.11,0,0,0,16.27-1.61,97.3,97.3,0,0,0,15.66-4.58,106.55,106.55,0,0,0,28.12-16.14,126.65,126.65,0,0,0,11.89-11l2.73-3,1.37-1.49c.45-.51.87-1,1.31-1.55l2.65-3.07c.88-1,1.7-2.11,2.55-3.16,3.46-4.17,6.59-8.61,9.73-13.06,1.54-2.25,3-4.56,4.55-6.82s2.89-4.66,4.43-7l.36.17c-1,2.57-2.08,5.12-3.19,7.66s-2.42,5-3.75,7.41a126.78,126.78,0,0,1-9,14,103.31,103.31,0,0,1-11,12.6,141,141,0,0,1-12.77,10.78,108.86,108.86,0,0,1-29.38,15.5A99.53,99.53,0,0,1,200,754.33a71.31,71.31,0,0,1-16.51.79Z" transform="translate(-14.95 -25)"/><path class="cls-2" d="M234.24,768.44" transform="translate(-14.95 -25)"/><path class="cls-2" d="M274.08,737.26s-15.33,25.22-39.84,31.18" transform="translate(-14.95 -25)"/><path class="cls-3" d="M274.25,737.36a58.08,58.08,0,0,1-3.41,5.55c-1.22,1.81-2.52,3.55-3.87,5.27a79.66,79.66,0,0,1-9,9.55,44.28,44.28,0,0,1-10.76,7.77c-1,.45-2,.89-3.09,1.3s-2.14.67-3.21,1c-.55.14-1.08.29-1.62.41s-1.11.16-1.66.23c-1.12.12-2.22.23-3.33.25l-.1-.39c3.87-2.22,7.58-4,11.11-6.27a14,14,0,0,0,1.34-.81l1.33-.83c.89-.54,1.81-1,2.68-1.6l2.69-1.64,2.58-1.84a94.92,94.92,0,0,0,9.56-8.41,89.75,89.75,0,0,0,8.43-9.7Z" transform="translate(-14.95 -25)"/><path class="cls-2" d="M174.31,637.32s23.59,47.86,11.19,92" transform="translate(-14.95 -25)"/><path class="cls-3" d="M174.49,637.23c1.83,3.5,3.45,7.11,4.93,10.77s2.85,7.38,4.09,11.14a165.34,165.34,0,0,1,5.72,23.09c1.32,7.83,2.38,15.83,1.78,23.84a70.81,70.81,0,0,1-5.31,23.28l-.39-.11c.45-4,1-7.81,1.24-11.7s.49-7.74.46-11.61,0-7.74-.13-11.61c0-1.94-.15-3.88-.25-5.82s-.32-3.88-.56-5.81a164.18,164.18,0,0,0-4.47-23,167.83,167.83,0,0,0-7.46-22.31Z" transform="translate(-14.95 -25)"/><path class="cls-2" d="M208.94,613.5s21,38.11,0,103.47" transform="translate(-14.95 -25)"/><path class="cls-3" d="M209.11,613.41a69.85,69.85,0,0,1,5.07,12.27l1,3.18.83,3.22c.6,2.15,1,4.33,1.45,6.51a146.39,146.39,0,0,1,2.33,26.54l-.15,6.68,0,1.67-.13,1.66-.25,3.34-.28,3.33-.17,1.67-.26,1.65c-.36,2.19-.77,4.39-1.18,6.57s-1,4.35-1.57,6.49-1.18,4.29-1.82,6.42c-1.42,4.21-3.06,8.35-4.81,12.42l-.38-.12c.66-4.41,1.6-8.7,2.46-13,.33-2.17.74-4.32,1.1-6.47s.86-4.28,1.09-6.46.63-4.31,1-6.45l.28-1.61.19-1.63.42-3.23.45-3.24.23-1.62.13-1.63.49-6.52a143.74,143.74,0,0,0-1.11-26.14c-.32-2.16-.58-4.34-1.05-6.47l-.63-3.23L213,626a75.58,75.58,0,0,0-4.24-12.43Z" transform="translate(-14.95 -25)"/><path class="cls-2" d="M240.42,609.09s19.88,47.75-7.88,92.18" transform="translate(-14.95 -25)"/><path class="cls-3" d="M240.61,609a87.12,87.12,0,0,1,3.93,11.36,120.2,120.2,0,0,1,2.64,11.75,117.23,117.23,0,0,1,1.45,24.13q-.3,6.07-1.18,12.12a70.91,70.91,0,0,1-3,11.83c-.31,1-.73,1.9-1.09,2.85s-.71,1.91-1.17,2.82c-.87,1.84-1.69,3.7-2.72,5.45a62.91,62.91,0,0,1-6.78,10l-.34-.21A167.59,167.59,0,0,0,240.66,679c1.09-3.75,2-7.54,2.9-11.35A102.84,102.84,0,0,0,245.44,656a115.15,115.15,0,0,0-.24-23.62,111.68,111.68,0,0,0-5-23.24Z" transform="translate(-14.95 -25)"/></svg>