<svg id="Layer_1" data-name="Layer 1" xmlns="http://www.w3.org/2000/svg" viewBox="0 0 327.41 565.54"><defs><style>.cls-1{fill:#d78247;}.cls-1,.cls-2{stroke:#010101;stroke-miterlimit:10;stroke-width:2px;}.cls-2{fill:#fced5d;}.cls-3{fill:#010101;}</style></defs><path class="cls-1" d="M10.81,246.71C56.39,195.4,124.21,104.62,129.18,14.35a1,1,0,0,1,1.86-.27l28,74.61,122.81,18.36s33.66-51.46,37.83-79.83a1,1,0,0,1,2-.06C335.26,91.45,412.33,529.09,10.81,577" transform="translate(-10.06 -12.45)"/><path class="cls-2" d="M84.75,162.85s10.28-15.78,51.87-9.79c33.71,4.85,38.47,47.82,39.07,63.92.13,3.66-2,7-5.06,8-12.77,4-46.94,9.81-73.66-28.91a75.62,75.62,0,0,1-12.22-33.17Z" transform="translate(-10.06 -12.45)"/><path class="cls-2" d="M322,219.07s-.87-18.8-38.78-33.72c-32.7-12.87-59.11,27.88-65.77,39.35a4.67,4.67,0,0,0,.15,5.23c6.83,8.26,33.32,34.64,77.77,12.24,10.15-5.11,19.27-13.18,26.63-23.1Z" transform="translate(-10.06 -12.45)"/><ellipse class="cls-3" cx="254.83" cy="207.52" rx="4.71" ry="21.17"/><ellipse class="cls-3" cx="135.02" cy="190.33" rx="21.89" ry="4.86" transform="translate(-97.46 248.47) rotate(-72.26)"/></svg>