<svg id="Layer_1" data-name="Layer 1" xmlns="http://www.w3.org/2000/svg" viewBox="0 0 350.88 538.94"><defs><style>.cls-1{fill:#fff;}.cls-1,.cls-2,.cls-3{stroke:#020303;stroke-miterlimit:10;stroke-width:2px;}.cls-2{fill:#603f92;}.cls-3{fill:none;}</style></defs><path class="cls-1" d="M158.79,530.21l-8.18,27.26L93.49,534.4l17.69-37.69,12-39.25S62.71,369.15,95.46,335,225.21,128.21,215.82,82.47l-6.49-29L243.16,21,414.82,79.43l19.69,55.42-15.05,24.87s-92.1,110-87.95,154.54,2.74,49,2.74,49l-30.6,21.87s-13.93,68.46-71.14,82S158.79,530.21,158.79,530.21Z" transform="translate(-84.73 -19.87)"/><path class="cls-2" d="M163.06,525.88s24.74-40.38,42.63-48.42l-83.9-22.27-15,44.58Z" transform="translate(-84.73 -19.87)"/><path class="cls-2" d="M118.79,300.32l187.56,87.94,33.4-26.62s-5-53.68,3.45-70.94,31.28-63.58,34.16-67.67-122.92-87.71-175.44-84.31C201.92,138.72,155.37,246.58,118.79,300.32Z" transform="translate(-84.73 -19.87)"/><path class="cls-3" d="M422.64,132.61s-62.94,9.52-122.92-21.67S217,56.42,217,56.42" transform="translate(-84.73 -19.87)"/><path class="cls-3" d="M424.3,121.56S259.32,45,227,42.24" transform="translate(-84.73 -19.87)"/></svg>