<svg id="Layer_1" data-name="Layer 1" xmlns="http://www.w3.org/2000/svg" viewBox="0 0 459.37 234.32"><defs><style>.cls-1{fill:#fff;}.cls-1,.cls-2,.cls-4{stroke:#010101;stroke-miterlimit:10;}.cls-1,.cls-2{stroke-width:2px;}.cls-2{fill:#d78247;}.cls-3{fill:#010101;}.cls-4{fill:none;}</style></defs><path class="cls-1" d="M492.92,288.31l105.27-2.51s-7.79-1-6.05,9.47,7,60.92-43.52,62.66-59.18-15.66-59.18-24.37S492.92,288.31,492.92,288.31Z" transform="translate(-138.95 -218.68)"/><path class="cls-2" d="M139.58,304c9.58,7.83,260.22,32.2,314.18-6.09,0,0-1.74-20.89,12.18-24.37,0,0,17.41-8.7,20.89,13.93,0,0-3.78-12.19,11.16-16.54s21.91,11.31,21.91,11.31,5.38,27-16.46,19.57c0,0,17.05,3.14,17.05,18.77s-20,17.07-21.59,12.87c0,0-117.37,148.09-315.8,113.28" transform="translate(-138.95 -218.68)"/><path class="cls-3" d="M519.24,234.3a12.94,12.94,0,0,0-1.32,5.49,15.7,15.7,0,0,0,0,5.47,29.07,29.07,0,0,0,4.06,10.46,50.57,50.57,0,0,1,5.16,10.73,16.09,16.09,0,0,1,.82,6.14,9.09,9.09,0,0,1-1.31,2.94,10.93,10.93,0,0,1-2.16,2.14,13.4,13.4,0,0,0,1.2-2.63,8.29,8.29,0,0,0,.28-2.65,14.44,14.44,0,0,0-.74-5.35,49.18,49.18,0,0,0-5-10.29,30.89,30.89,0,0,1-4.33-11.19,18.67,18.67,0,0,1,0-6.15A11.2,11.2,0,0,1,519.24,234.3Z" transform="translate(-138.95 -218.68)"/><path class="cls-3" d="M538.1,218.68a18,18,0,0,0-2.22,7.06,24.9,24.9,0,0,0-.57,7.27,43.21,43.21,0,0,0,3.62,14.34A74.13,74.13,0,0,1,543.72,262a24.25,24.25,0,0,1,.35,7.9,12.22,12.22,0,0,1-1.65,3.7,14,14,0,0,1-2.69,2.84,16.57,16.57,0,0,0,1.74-3.33,11.26,11.26,0,0,0,.63-3.52,22.32,22.32,0,0,0-.34-7.22,72.19,72.19,0,0,0-4.68-14.22,45.73,45.73,0,0,1-3.77-15,27.72,27.72,0,0,1,.61-7.85A15.64,15.64,0,0,1,538.1,218.68Z" transform="translate(-138.95 -218.68)"/><path class="cls-3" d="M560,232.8a13,13,0,0,0-2.28,5.16,16.05,16.05,0,0,0-1,5.39,29.12,29.12,0,0,0,2.15,11,50.31,50.31,0,0,1,3.17,11.47,16,16,0,0,1-.28,6.19,9.14,9.14,0,0,1-1.81,2.66,10.83,10.83,0,0,1-2.5,1.72,12.58,12.58,0,0,0,1.64-2.37,8,8,0,0,0,.75-2.56,14.31,14.31,0,0,0,.22-5.4,48.49,48.49,0,0,0-3.06-11,31.16,31.16,0,0,1-2.28-11.78,18.83,18.83,0,0,1,1.13-6A11.08,11.08,0,0,1,560,232.8Z" transform="translate(-138.95 -218.68)"/><path class="cls-4" d="M437.5,405.64" transform="translate(-138.95 -218.68)"/></svg>