<svg id="Layer_1" data-name="Layer 1" xmlns="http://www.w3.org/2000/svg" viewBox="0 0 393.75 470.45"><defs><style>.cls-1{fill:#d78247;}.cls-1,.cls-2{stroke:#010101;stroke-miterlimit:10;stroke-width:2px;}.cls-2{fill:#fced5d;}.cls-3{fill:#010101;}</style></defs><path class="cls-1" d="M60.63,481s-42-373.18,0-467.59l65.72,85.09S259.46,75,347,98.53l45.39-85.09S455.63,257,425.63,481" transform="translate(-40.96 -10.71)"/><path class="cls-2" d="M71.26,220.68s3.37-25.11,57.33-41.87C172.34,165.23,203,214.67,213,233.87c2.28,4.37,1.61,9.66-1.55,12.58-13.21,12.19-51.34,39-106.15,7.44-13.38-7.71-25-19.3-34-33.21Z" transform="translate(-40.96 -10.71)"/><path class="cls-2" d="M403.72,224.37s-1.92-25.24-53.49-43.79c-44.47-16-78.35,39.85-86.84,55.54a6.32,6.32,0,0,0,.41,7C273.32,254,310,288.38,368.85,256.48c13.43-7.27,25.37-18.49,34.87-32.11Z" transform="translate(-40.96 -10.71)"/><ellipse class="cls-3" cx="104.31" cy="211.81" rx="13.14" ry="43.99"/><ellipse class="cls-3" cx="287.31" cy="212.81" rx="13.14" ry="43.99"/></svg>