<svg id="Layer_1" data-name="Layer 1" xmlns="http://www.w3.org/2000/svg" viewBox="0 0 455.45 866.73"><defs><style>.cls-1{fill:#d78247;}.cls-1,.cls-2{stroke:#010101;stroke-miterlimit:10;stroke-width:2px;}.cls-2{fill:#fced5d;}.cls-3{fill:#010101;}.cls-4{fill:#2f3b8f;}</style></defs><path class="cls-1" d="M36.42,882s-48.61-432,0-541.24l76.07,98.49s154.08-27.2,255.46,0l52.54-98.49s73.15,282,38.43,541.24" transform="translate(-13.82 -15.41)"/><path class="cls-2" d="M48.73,580.64s3.9-29.06,66.36-48.46c50.64-15.72,86.07,41.51,97.67,63.73,2.64,5.06,1.86,11.18-1.8,14.56-15.29,14.11-59.42,45.19-122.87,8.62-15.49-8.93-28.95-22.34-39.36-38.45Z" transform="translate(-13.82 -15.41)"/><path class="cls-2" d="M433.56,584.91s-2.23-29.22-61.92-50.68c-51.47-18.51-90.69,46.12-100.52,64.28-1.5,2.77-1.3,6.12.48,8.14,11,12.53,53.45,52.35,121.59,15.44,15.54-8.43,29.37-21.41,40.37-37.18Z" transform="translate(-13.82 -15.41)"/><ellipse class="cls-3" cx="120.58" cy="567.36" rx="15.21" ry="50.92"/><ellipse class="cls-3" cx="332.41" cy="568.52" rx="15.21" ry="50.92"/><circle class="cls-4" cx="226.91" cy="275.68" r="54.4"/><path class="cls-4" d="M375,189.62c-.56-.8-1.16-1.58-1.79-2.33s-1.19-1.56-1.83-2.3-1.22-1.53-1.87-2.26-1.24-1.51-1.91-2.23-1.27-1.49-1.95-2.2-1.3-1.47-2-2.16-1.32-1.45-2-2.13-1.35-1.42-2.07-2.09-1.36-1.4-2.09-2-1.4-1.38-2.14-2-1.41-1.35-2.17-2-1.44-1.33-2.2-2-1.46-1.3-2.23-1.9-1.49-1.28-2.27-1.87-1.51-1.25-2.3-1.82-1.53-1.22-2.34-1.78-1.55-1.2-2.36-1.75-1.57-1.17-2.39-1.7-1.59-1.14-2.43-1.66-1.61-1.11-2.45-1.62-1.63-1.08-2.48-1.57-1.65-1.06-2.5-1.53-1.67-1-2.54-1.49-1.68-1-2.55-1.44-1.71-1-2.59-1.4-1.72-.94-2.61-1.35-1.73-.91-2.63-1.31-1.74-.88-2.65-1.26-1.76-.85-2.67-1.21-1.78-.82-2.7-1.17-1.79-.79-2.71-1.12-1.81-.76-2.74-1.07-1.82-.73-2.75-1-1.83-.69-2.77-1-1.84-.65-2.79-.92-1.85-.63-2.8-.88-1.86-.6-2.82-.83-1.87-.56-2.83-.78-1.88-.53-2.84-.73-1.9-.5-2.86-.69-1.9-.46-2.87-.63-1.91-.43-2.88-.58-1.91-.39-2.88-.53-1.93-.36-2.9-.48-1.93-.33-2.91-.43S262,124.12,261,124s-1.94-.26-2.92-.33-1.94-.22-2.92-.27-2-.2-2.93-.23-1.95-.16-2.93-.18-2-.12-2.94-.12-1.95-.09-2.93-.07-2-.06-2.94,0-2,0-2.94,0-1.95,0-2.93.08-2,0-2.94.13-1.95.08-2.93.18-2,.12-2.93.24-1.95.15-2.92.28-1.95.19-2.92.34-1.94.22-2.91.39-1.94.25-2.9.44-1.94.28-2.9.49-1.93.31-2.88.53-1.93.36-2.88.59-1.92.39-2.87.64-1.91.42-2.85.69-1.91.46-2.85.74-1.89.49-2.82.79-1.89.52-2.82.84-1.88.55-2.8.89-1.87.58-2.78.93-1.86.62-2.77,1-1.85.65-2.75,1-1.83.68-2.73,1.08-1.82.71-2.71,1.13-1.81.74-2.69,1.17-1.8.78-2.67,1.23-1.79.8-2.65,1.26-1.77.84-2.63,1.32-1.75.87-2.6,1.36-1.74.9-2.58,1.4-1.73.93-2.56,1.45-1.7,1-2.53,1.5-1.68,1-2.5,1.54-1.67,1-2.47,1.58-1.66,1-2.45,1.62-1.63,1.08-2.42,1.67-1.61,1.1-2.38,1.71-1.6,1.13-2.36,1.75-1.58,1.16-2.33,1.79-1.56,1.19-2.3,1.83-1.53,1.22-2.26,1.87-1.51,1.24-2.23,1.91-1.49,1.27-2.2,1.95-1.47,1.3-2.16,2-1.45,1.32-2.13,2-1.42,1.34-2.09,2.06-1.4,1.37-2.06,2.1-1.37,1.39-2,2.13-1.36,1.41-2,2.17-1.32,1.44-1.94,2.2-1.3,1.46-1.9,2.24-1.28,1.48-1.87,2.26-1.25,1.51-1.82,2.31-1.22,1.52-1.79,2.33a35.88,35.88,0,1,0,57.41,43c.35-.44.69-.88,1-1.34s.71-.87,1-1.31.72-.86,1.07-1.31.74-.84,1.1-1.28.75-.83,1.11-1.26.77-.82,1.14-1.24.78-.81,1.16-1.23.8-.79,1.18-1.2.81-.78,1.2-1.18.83-.76,1.22-1.16.84-.75,1.25-1.14.85-.73,1.26-1.12.86-.72,1.28-1.09.87-.71,1.3-1.07.89-.69,1.32-1,.9-.68,1.33-1,.92-.66,1.36-1,.92-.64,1.37-1,.93-.63,1.39-1,.94-.61,1.4-.93,1-.59,1.43-.9,1-.58,1.43-.89,1-.55,1.45-.85,1-.54,1.47-.83,1-.53,1.48-.81,1-.5,1.5-.77,1-.49,1.5-.76,1-.47,1.53-.72,1-.46,1.53-.7,1-.44,1.54-.68,1-.41,1.56-.64,1-.4,1.57-.62,1-.38,1.58-.59,1.06-.36,1.58-.56,1.07-.35,1.6-.54,1.08-.32,1.61-.51,1.08-.3,1.62-.47,1.08-.29,1.62-.46,1.09-.26,1.63-.42,1.1-.25,1.64-.39,1.1-.23,1.64-.37,1.11-.21,1.66-.33,1.1-.2,1.65-.31,1.11-.18,1.67-.28,1.11-.15,1.66-.25,1.12-.13,1.67-.22,1.12-.12,1.68-.19,1.12-.1,1.67-.16,1.13-.08,1.68-.14,1.13,0,1.69-.1,1.12,0,1.68-.08,1.12,0,1.68,0,1.13,0,1.69,0,1.12,0,1.69,0,1.12,0,1.68,0,1.12.06,1.68.08,1.12.08,1.69.1,1.11.1,1.68.13,1.11.12,1.67.16,1.12.14,1.68.19,1.11.16,1.67.22,1.11.18,1.67.25,1.1.2,1.66.28,1.1.21,1.66.3,1.09.24,1.65.34,1.09.25,1.64.36,1.09.28,1.64.39,1.09.3,1.63.43,1.08.31,1.63.45,1.07.33,1.61.47,1.07.35,1.61.51,1.06.37,1.6.53,1.05.39,1.59.57l1.58.59c.51.21,1,.42,1.57.61s1,.44,1.55.65,1,.46,1.55.67,1,.48,1.53.7,1,.49,1.52.72,1,.51,1.51.75,1,.53,1.5.78,1,.55,1.48.8,1,.57,1.47.83,1,.58,1.45.86.95.6,1.44.88.94.61,1.42.9.93.63,1.4.93.92.65,1.39,1l1.37,1,1.36,1c.44.35.88.69,1.34,1s.87.71,1.32,1.05.85.73,1.3,1.07.84.74,1.28,1.1.83.75,1.26,1.11.82.77,1.24,1.14.81.78,1.23,1.16.79.8,1.2,1.18.78.81,1.18,1.2.77.83,1.16,1.23.75.83,1.14,1.24.74.85,1.12,1.26.72.86,1.09,1.28.71.88,1.08,1.3.68.89,1.05,1.32.67.9,1,1.34A35.88,35.88,0,1,0,375,189.62Z" transform="translate(-13.82 -15.41)"/><path class="cls-4" d="M451.2,113.15a36.18,36.18,0,0,0-3.13-3.64,37.74,37.74,0,0,0-3.2-3.6,36.36,36.36,0,0,0-3.27-3.53,36.34,36.34,0,0,0-3.32-3.48,37.62,37.62,0,0,0-3.38-3.42,36.38,36.38,0,0,0-3.45-3.35,35.21,35.21,0,0,0-3.5-3.3,35.26,35.26,0,0,0-3.56-3.24,36.23,36.23,0,0,0-3.61-3.17,35.07,35.07,0,0,0-3.67-3.11,35.18,35.18,0,0,0-3.73-3,36.29,36.29,0,0,0-3.77-3,37.56,37.56,0,0,0-3.83-2.92,35.94,35.94,0,0,0-3.87-2.84A37.16,37.16,0,0,0,398,64.74,34.86,34.86,0,0,0,394,62a35.68,35.68,0,0,0-4-2.64,34.29,34.29,0,0,0-4.06-2.57,37.53,37.53,0,0,0-4.11-2.5,36.72,36.72,0,0,0-4.16-2.43,36.53,36.53,0,0,0-4.19-2.35,36.72,36.72,0,0,0-4.24-2.28,34.44,34.44,0,0,0-4.27-2.2,34.63,34.63,0,0,0-4.32-2.13,36,36,0,0,0-4.35-2.06,36,36,0,0,0-4.38-2,35.23,35.23,0,0,0-4.42-1.9A35.19,35.19,0,0,0,343,35.17a35.84,35.84,0,0,0-4.48-1.75A35.84,35.84,0,0,0,334,31.75a36.44,36.44,0,0,0-4.54-1.59,36.49,36.49,0,0,0-4.57-1.51,38.7,38.7,0,0,0-4.59-1.43,37,37,0,0,0-4.62-1.35,35.33,35.33,0,0,0-4.64-1.26,35.36,35.36,0,0,0-4.66-1.19,36.15,36.15,0,0,0-4.68-1.11,35.76,35.76,0,0,0-4.7-1,34.57,34.57,0,0,0-4.72-.94,36.38,36.38,0,0,0-4.73-.86,34.84,34.84,0,0,0-4.75-.78,36.39,36.39,0,0,0-4.76-.69,34.76,34.76,0,0,0-4.77-.61,36.59,36.59,0,0,0-4.78-.53,36.76,36.76,0,0,0-4.79-.44,35,35,0,0,0-4.8-.36,34.94,34.94,0,0,0-4.8-.28,35.12,35.12,0,0,0-4.81-.19,36.75,36.75,0,0,0-4.81-.11,36.76,36.76,0,0,0-4.81,0,35.1,35.1,0,0,0-4.81.06,35.14,35.14,0,0,0-4.81.14,35.07,35.07,0,0,0-4.8.23,36.73,36.73,0,0,0-4.8.31,35.17,35.17,0,0,0-4.8.39,36.51,36.51,0,0,0-4.78.48,36.65,36.65,0,0,0-4.78.56,36.69,36.69,0,0,0-4.77.65,36.59,36.59,0,0,0-4.75.73,34.51,34.51,0,0,0-4.74.81,36.48,36.48,0,0,0-4.73.89,36.13,36.13,0,0,0-4.71,1,36.11,36.11,0,0,0-4.69,1.06,34.19,34.19,0,0,0-4.67,1.14,35.88,35.88,0,0,0-4.66,1.22,35.78,35.78,0,0,0-4.63,1.3,36.86,36.86,0,0,0-4.6,1.38,37.13,37.13,0,0,0-4.59,1.47A34.79,34.79,0,0,0,150,30.82a36.45,36.45,0,0,0-4.53,1.62,37.48,37.48,0,0,0-4.5,1.7,37.48,37.48,0,0,0-4.47,1.78,35.9,35.9,0,0,0-4.44,1.86,35.84,35.84,0,0,0-4.4,1.94,35.21,35.21,0,0,0-4.37,2A35.89,35.89,0,0,0,119,43.81,36.06,36.06,0,0,0,114.7,46a35.93,35.93,0,0,0-4.26,2.23,37.51,37.51,0,0,0-4.22,2.31A36.06,36.06,0,0,0,102,52.91a35.05,35.05,0,0,0-4.13,2.45,37.16,37.16,0,0,0-4.09,2.53,35.74,35.74,0,0,0-4,2.6,35.68,35.68,0,0,0-4,2.67,37.19,37.19,0,0,0-4,2.74,34.73,34.73,0,0,0-3.9,2.81,36.08,36.08,0,0,0-3.86,2.87,37.27,37.27,0,0,0-3.81,3,36,36,0,0,0-3.75,3,36.39,36.39,0,0,0-3.7,3.08,37.43,37.43,0,0,0-3.65,3.13A37.58,37.58,0,0,0,55.55,87,35,35,0,0,0,52,90.21a37.62,37.62,0,0,0-3.48,3.32,36.47,36.47,0,0,0-3.42,3.39,37.64,37.64,0,0,0-3.36,3.44,36.31,36.31,0,0,0-3.29,3.5,35.26,35.26,0,0,0-3.24,3.56A35,35,0,0,0,32.06,111a35.88,35.88,0,1,0,54.27,46.75,35.19,35.19,0,0,0,2.35-2.68,35.31,35.31,0,0,0,2.4-2.63c.85-.82,1.67-1.69,2.44-2.59s1.7-1.66,2.49-2.55a35.09,35.09,0,0,0,2.53-2.5c.9-.78,1.75-1.6,2.57-2.46s1.79-1.57,2.62-2.41,1.81-1.54,2.66-2.37,1.84-1.5,2.7-2.32,1.86-1.47,2.74-2.28a34.51,34.51,0,0,0,2.77-2.22,35.27,35.27,0,0,0,2.82-2.18,34.76,34.76,0,0,0,2.86-2.13c1-.64,2-1.33,2.89-2.07s2-1.31,2.93-2,2-1.27,3-2,2-1.24,3-1.93a33.8,33.8,0,0,0,3-1.87c1-.55,2.07-1.16,3.06-1.81s2.1-1.13,3.1-1.77,2.11-1.09,3.12-1.71,2.13-1,3.15-1.65a33.75,33.75,0,0,0,3.18-1.6c1.1-.46,2.17-1,3.21-1.54s2.18-.94,3.24-1.49,2.19-.9,3.26-1.43,2.21-.86,3.28-1.38,2.23-.82,3.31-1.31,2.24-.78,3.33-1.26a34.31,34.31,0,0,0,3.35-1.2A33.38,33.38,0,0,0,177,97.3a34.39,34.39,0,0,0,3.4-1.08c1.15-.29,2.28-.63,3.4-1s2.31-.59,3.43-1a35,35,0,0,0,3.45-.9,34.85,34.85,0,0,0,3.46-.84c1.16-.21,2.32-.47,3.47-.78s2.33-.43,3.48-.73a34.27,34.27,0,0,0,3.5-.66,34.77,34.77,0,0,0,3.51-.6c1.18-.12,2.36-.3,3.52-.53a35.2,35.2,0,0,0,3.53-.48,35,35,0,0,0,3.53-.42,32.56,32.56,0,0,0,3.55-.35,35.38,35.38,0,0,0,3.55-.29,35.25,35.25,0,0,0,3.55-.23,35.15,35.15,0,0,0,3.55-.17,35.19,35.19,0,0,0,3.56-.1c1.19,0,2.38,0,3.56,0s2.38.07,3.56,0,2.37.11,3.56.08,2.37.15,3.56.14a35,35,0,0,0,3.55.21c1.18.14,2.37.23,3.55.26a35.21,35.21,0,0,0,3.55.33,34.83,34.83,0,0,0,3.54.39c1.17.21,2.34.36,3.53.46a34.69,34.69,0,0,0,3.52.51c1.16.25,2.33.44,3.51.58a34.87,34.87,0,0,0,3.51.63,34.2,34.2,0,0,0,3.49.7,33.65,33.65,0,0,0,3.48.76c1.14.33,2.29.6,3.46.82s2.29.64,3.45.88,2.27.68,3.43.94,2.26.72,3.42,1,2.25.76,3.4,1.06,2.23.8,3.38,1.12,2.22.84,3.36,1.17a35.13,35.13,0,0,0,3.34,1.24,35.08,35.08,0,0,0,3.32,1.29,35,35,0,0,0,3.29,1.36,33.84,33.84,0,0,0,3.27,1.4c1.05.54,2.14,1,3.24,1.47a35,35,0,0,0,3.22,1.52,35,35,0,0,0,3.19,1.58c1,.59,2.08,1.14,3.17,1.63a33.68,33.68,0,0,0,3.13,1.69c1,.63,2,1.21,3.1,1.74s2,1.25,3.08,1.8a34.68,34.68,0,0,0,3,1.85,34.66,34.66,0,0,0,3,1.9c1,.7,1.95,1.36,3,2s1.93,1.38,2.94,2,1.91,1.42,2.91,2.06,1.88,1.45,2.87,2.11,1.85,1.49,2.83,2.16a34.55,34.55,0,0,0,2.79,2.2,35.28,35.28,0,0,0,2.76,2.26,35,35,0,0,0,2.71,2.3c.86.83,1.75,1.61,2.68,2.35a35.31,35.31,0,0,0,2.63,2.4c.82.85,1.69,1.67,2.59,2.44s1.66,1.7,2.55,2.49,1.63,1.73,2.5,2.53a35.17,35.17,0,0,0,2.46,2.57c.76.91,1.57,1.79,2.41,2.62s1.54,1.81,2.37,2.66,1.51,1.84,2.32,2.7a35.88,35.88,0,1,0,54.66-46.3Z" transform="translate(-13.82 -15.41)"/><circle class="cls-4" cx="226.91" cy="275.68" r="54.4"/></svg>