<svg id="Layer_1" data-name="Layer 1" xmlns="http://www.w3.org/2000/svg" viewBox="0 0 400.94 115.05"><defs><style>.cls-1,.cls-2{fill:#d78247;stroke:#010101;stroke-miterlimit:10;stroke-width:2px;}.cls-2{stroke-linecap:round;}</style></defs><path class="cls-1" d="M193.47,83.66c0,38.5-41,43.32-91.6,43.32s-91.6-4.82-91.6-43.32,41-69.73,91.6-69.73S193.47,45.15,193.47,83.66Z" transform="translate(-9.27 -12.93)"/><path class="cls-2" d="M57.66,91.13s-3.74,8.45,5.12,34.14" transform="translate(-9.27 -12.93)"/><path class="cls-2" d="M146.07,91.13s3.75,8.45-5.11,34.14" transform="translate(-9.27 -12.93)"/><line class="cls-2" x1="92.6" y1="71.82" x2="92.6" y2="114.05"/><path class="cls-1" d="M226,83.66c0,38.5,41,43.32,91.6,43.32s91.6-4.82,91.6-43.32-41-69.73-91.6-69.73S226,45.15,226,83.66Z" transform="translate(-9.27 -12.93)"/><path class="cls-2" d="M361.81,91.13s3.75,8.45-5.11,34.14" transform="translate(-9.27 -12.93)"/><path class="cls-2" d="M273.4,91.13s-3.74,8.45,5.12,34.14" transform="translate(-9.27 -12.93)"/><line class="cls-2" x1="308.34" y1="71.82" x2="308.34" y2="114.05"/></svg>