<svg id="Layer_1" data-name="Layer 1" xmlns="http://www.w3.org/2000/svg" viewBox="0 0 393.75 488.41"><defs><style>.cls-1{fill:#d78247;}.cls-1,.cls-2{stroke:#010101;stroke-width:2px;}.cls-1,.cls-2,.cls-4,.cls-5{stroke-miterlimit:10;}.cls-2{fill:#fced5d;}.cls-3{fill:#010101;}.cls-4{fill:#b72d2c;}.cls-4,.cls-5{stroke:#040404;}.cls-5{fill:#841a1b;}.cls-6{fill:#020202;}</style></defs><path class="cls-1" d="M60.63,494.23s-42-373.17,0-467.59l65.72,85.09s133.11-23.5,220.69,0l45.39-85.09s63.2,243.59,33.2,467.59" transform="translate(-40.96 -5.95)"/><path class="cls-2" d="M71.26,233.88s3.37-25.11,57.33-41.86C172.34,178.43,203,227.87,213,247.08c2.28,4.36,1.61,9.66-1.55,12.57-13.21,12.2-51.34,39-106.15,7.45-13.38-7.72-25-19.3-34-33.22Z" transform="translate(-40.96 -5.95)"/><path class="cls-2" d="M403.72,237.57s-1.92-25.24-53.49-43.78c-44.47-16-78.35,39.84-86.84,55.53a6.32,6.32,0,0,0,.41,7c9.52,10.82,46.18,45.23,105.05,13.34,13.43-7.28,25.37-18.49,34.87-32.12Z" transform="translate(-40.96 -5.95)"/><ellipse class="cls-3" cx="104.31" cy="229.77" rx="13.14" ry="43.99"/><ellipse class="cls-3" cx="287.31" cy="230.77" rx="13.14" ry="43.99"/><path class="cls-4" d="M136.37,101.5s-31.9-13.85-16.94-55.87c18-50.57,84.73-28.33,84.73-28.33s23.3,10.59,31.25,15.89,12.71,6.09,12.71,6.09S250.23,27.89,260.56,17,272.21,5.12,276.71,7.5s2.39,9,2.39,9-15.89,11.38-20.39,25.42c0,0,7.4,7.72,40.77,8.73,27.68.84,35.93,11,38.17,15.16.61,1.14,1.22,2.28,1.92,3.37,2.78,4.35,8.19,17.16-11.75,31.74Z" transform="translate(-40.96 -5.95)"/><path class="cls-5" d="M318.81,124l-88.51-2.58L143,124c-5,0-9-3.62-9-8.09v-15H327.82v15C327.82,120.39,323.79,124,318.81,124Z" transform="translate(-40.96 -5.95)"/><path class="cls-6" d="M320.48,310a25,25,0,0,1-5.35,22.53c-7.79,8.86-24,21.06-50.26,12.86-16.75-5.23-24.1-12.43-27-18.94-2.94,6.51-10.29,13.71-27,18.94-26.26,8.2-42.47-4-50.26-12.86A25,25,0,0,1,155.19,310c4-15.51,20.56-14.66,20.56-14.66-6.35,2.74-9.83,6.09-11.72,9.1A12.72,12.72,0,0,0,164.2,318c7.13,10.6,23.51-4.36,40.67-21.86,19.4-19.81,33,0,33,0s13.56-19.81,33,0c17.15,17.5,33.54,32.46,40.66,21.86a12.74,12.74,0,0,0,.18-13.63c-1.89-3-5.37-6.36-11.73-9.1C299.92,295.29,316.48,294.44,320.48,310Z" transform="translate(-40.96 -5.95)"/></svg>