<svg id="Layer_1" data-name="Layer 1" xmlns="http://www.w3.org/2000/svg" viewBox="0 0 213.57 785.41"><defs><style>.cls-1{fill:#fffdfb;stroke:#040505;}.cls-1,.cls-3,.cls-4{stroke-miterlimit:10;stroke-width:2px;}.cls-2{fill:#d72323;}.cls-3{fill:#c29b76;stroke:#010101;}.cls-4{fill:#dedede;stroke:#020303;}</style></defs><path class="cls-1" d="M67.44,317.73s-60-49.8-44.55-134.37S113.72,77.71,134.71,15.07c0,0,9.78,58.88,48.25,73.14s78.64,140.61,17.39,212.6Z" transform="translate(-19.34 -10.94)"/><path class="cls-2" d="M216.44,132.72c-19.95,8.95-55.72-27.66-55.72-27.66l2.87,35.09L134,112.73l-16.66,54.83L97.06,102.07l-29.79.57s7.79-9.18,22.88-24.25,35.76-34,44.76-60.85c0,0,6.1,44.26,35.2,65.51,7.36,5.37,16.49,7.6,22.1,11.86,1.39,1.06,3,3.41,4.11,4.64C210,114.6,216.44,132.72,216.44,132.72Z" transform="translate(-19.34 -10.94)"/><path class="cls-3" d="M61.57,301.62l135.69,4.87s-.59,397.94-12.08,439.91-82.87,81.37-91,7.9Z" transform="translate(-19.34 -10.94)"/><path class="cls-4" d="M54.33,297.41s88.31-40.83,148.18-.51l-6.64,63.18s-59.24-25-131.31-9.16L62,337.64Z" transform="translate(-19.34 -10.94)"/></svg>