<svg id="Layer_1" data-name="Layer 1" xmlns="http://www.w3.org/2000/svg" viewBox="0 0 331.35 761.62"><defs><style>.cls-1{fill:#fff;}.cls-1,.cls-2,.cls-3{stroke:#020303;stroke-miterlimit:10;stroke-width:2px;}.cls-2{fill:#603f92;}.cls-3{fill:none;}</style></defs><path class="cls-1" d="M116.25,237.73l-9.41-28.23,62.73-14.63,7.54,42.86,13.36,40.77s104.81,39.13,97.36,88,13.45,254.84,49,288.29l23,20.91-9.41,48.08L168.52,777.14l-50.18-35.55-2.09-30.31s12.55-149.49-17.77-185S66.67,486,66.67,486l13-37.11S50.4,382,91.16,336,116.25,237.73,116.25,237.73Z" transform="translate(-29.56 -16.61)"/><path class="cls-2" d="M115.21,244s3.13,49.41-7.32,67L193,279.61,179,232.5Z" transform="translate(-29.56 -16.61)"/><path class="cls-2" d="M288.74,410.21,75.48,447.85,62.94,490.71s36.59,42.86,39.72,62.72,11.5,73.17,11.5,78.4,157.85,1,200.71-33.45C314.87,598.38,289.78,478.16,288.74,410.21Z" transform="translate(-29.56 -16.61)"/><path class="cls-3" d="M129.84,736.37S177.93,690.37,248,681s103.49-3.13,103.49-3.13" transform="translate(-29.56 -16.61)"/><path class="cls-3" d="M135.07,746.82S322.19,713.05,351.46,696" transform="translate(-29.56 -16.61)"/><path class="cls-2" d="M150.78,135.52S206,125.31,196.06,89.4c0,0-9.05-19.21-29.43-12.72s-8.88,24.19-4.73,33.12S150.78,135.52,150.78,135.52Z" transform="translate(-29.56 -16.61)"/><path class="cls-2" d="M116.45,161.13S.18,113.85,38.2,39.77c0,0,28.48-37.93,70.14-14.54s8.52,57-4.6,74.62S116.45,161.13,116.45,161.13Z" transform="translate(-29.56 -16.61)"/></svg>