<svg id="Layer_1" data-name="Layer 1" xmlns="http://www.w3.org/2000/svg" viewBox="0 0 502.26 629.11"><defs><style>.cls-1{fill:#572c12;}.cls-1,.cls-2,.cls-3,.cls-7{stroke:#010101;stroke-width:2px;}.cls-1,.cls-2,.cls-3,.cls-4,.cls-5,.cls-6,.cls-7,.cls-8{stroke-miterlimit:10;}.cls-2{fill:#7c3c11;}.cls-3{fill:#fff;}.cls-4{fill:#f0946c;}.cls-4,.cls-5,.cls-6{stroke:#eeeaf6;}.cls-5{fill:#ffeb73;}.cls-6{fill:#010101;}.cls-7{fill:#d78247;}.cls-8{fill:#97a2d2;stroke:#fff;}</style></defs><polygon class="cls-1" points="138.28 506.4 105.65 506.4 159.82 125.35 180.7 125.35 199.22 125.35 151.82 494.08 138.28 506.4"/><polygon class="cls-2" points="138.28 506.4 105.65 506.4 159.82 125.35 192.45 125.35 138.28 506.4"/><polygon class="cls-1" points="366.66 506.4 334.03 506.4 388.2 125.35 409.08 125.35 427.6 125.35 380.2 494.08 366.66 506.4"/><polygon class="cls-2" points="366.66 506.4 334.03 506.4 388.2 125.35 420.83 125.35 366.66 506.4"/><polygon class="cls-1" points="495.32 419.08 479.3 420.24 432.4 3.32 442.66 2.58 451.75 1.92 501.23 408.34 495.32 419.08"/><polygon class="cls-2" points="495.32 419.08 479.3 420.24 432.4 3.32 448.43 2.16 495.32 419.08"/><polygon class="cls-2" points="473.77 225.07 373.54 302.84 383.56 316.1 476.23 249.7 473.77 225.07"/><polygon class="cls-2" points="397.95 394.36 112.62 394.36 168.54 1 453.87 1 397.95 394.36"/><polygon class="cls-3" points="394.36 388.2 117.96 388.2 172.13 7.16 448.53 7.16 394.36 388.2"/><rect class="cls-2" x="127.53" y="353.5" width="19.7" height="334.83" rx="9.85" transform="translate(-218.12 50.02) rotate(-23.38)"/><rect class="cls-2" x="127.53" y="353.5" width="19.7" height="334.83" rx="9.85" transform="translate(34.07 1006.28) rotate(-156.62)"/><path class="cls-4" d="M211.08,378S205.39,206.19,228,164.63l26.91,41.19s61.58-5.91,100.69,8l23.79-37.19s20,113.43-1.75,214.54" transform="translate(-22.67 -47.28)"/><path class="cls-5" d="M225.33,259.56s2.45-11.33,27.67-17c20.45-4.61,32.63,19,36.51,28.18a4.86,4.86,0,0,1-1.16,5.68c-6.47,5.08-24.83,15.95-48.7-.44a46.49,46.49,0,0,1-14.32-16.39Z" transform="translate(-22.67 -47.28)"/><path class="cls-5" d="M376.89,273.26s0-11.59-22.83-21.91c-19.71-8.9-37.18,15.35-41.63,22.2a2.89,2.89,0,0,0-.06,3.22c3.95,5.28,19.44,22.31,47.44,9.88a47.41,47.41,0,0,0,17.08-13.39Z" transform="translate(-22.67 -47.28)"/><ellipse class="cls-6" cx="259.03" cy="263.08" rx="20.13" ry="6.01" transform="translate(-46.34 453.26) rotate(-85.47)"/><ellipse class="cls-6" cx="342.49" cy="270.15" rx="20.13" ry="6.01" transform="translate(23.48 542.96) rotate(-85.47)"/><path class="cls-5" d="M387.19,207.45l-16.72,8-.31.15-.27-.2-15.26-10.5a5.83,5.83,0,0,0-9.12,4.35L344,227.68a5.84,5.84,0,0,0,8.33,5.73l16.72-8,.3-.15.28.2L384.93,236a5.83,5.83,0,0,0,9.12-4.35l1.46-18.46A5.83,5.83,0,0,0,387.19,207.45Z" transform="translate(-22.67 -47.28)"/><path class="cls-2" d="M23.67,365.92c0,18,52.09,25.24,116.35,25.24s116.34-7.22,116.34-25.24-52.09-24-116.34-24S23.67,347.9,23.67,365.92Z" transform="translate(-22.67 -47.28)"/><path class="cls-7" d="M225.66,360.94a.35.35,0,0,1-.16.08c-3.29.77-101.59,23.54-179.67-2.48,0,0-7.94-1.84-4-16.54a.3.3,0,0,0,0-.16c-.72-4.23-29.61-174.65-1.46-216.2a.38.38,0,0,1,.65,0L65.4,171.77a.38.38,0,0,0,.4.2c4.19-.68,56.84-8.84,115.21-1.22a.39.39,0,0,0,.38-.18c1.5-2.57,16.07-27.82,16.55-43.7a.38.38,0,0,1,.73-.15c5,11.4,34.22,83.52,26.92,212.2a.41.41,0,0,0,0,.19C226.24,340.37,233.2,355,225.66,360.94Z" transform="translate(-22.67 -47.28)"/><path class="cls-8" d="M292.85,96.75a22.42,22.42,0,0,0-8.1,1.51,30.77,30.77,0,0,0-45-.4,22.33,22.33,0,1,0,0,42.43,30.79,30.79,0,0,0,45-.41,22.32,22.32,0,1,0,8.1-43.13Z" transform="translate(-22.67 -47.28)"/><path class="cls-8" d="M354.41,117.06a22.31,22.31,0,0,0-8.11,1.52,30.77,30.77,0,0,0-45-.41,22.33,22.33,0,1,0,0,42.43,30.76,30.76,0,0,0,45-.4,22.33,22.33,0,1,0,8.11-43.14Z" transform="translate(-22.67 -47.28)"/></svg>