<svg id="Layer_1" data-name="Layer 1" xmlns="http://www.w3.org/2000/svg" viewBox="0 0 1931.05 252.95"><defs><style>.cls-1{fill:#202020;}.cls-2{fill:#e5d302;}</style></defs><rect class="cls-1" x="100.24" y="0.45" width="3.24" height="197.74"/><ellipse class="cls-2" cx="101.86" cy="238.97" rx="15.13" ry="13.98"/><path class="cls-1" d="M139.52,239q0-.72,0-1.44c0-24.82-16.87-40.76-37.69-40.76s-37.68,15.94-37.68,40.76c0,.48,0,1,0,1.44Z"/><rect class="cls-1" x="236.72" width="2.84" height="173.38"/><ellipse class="cls-2" cx="238.14" cy="209.14" rx="13.26" ry="12.26"/><path class="cls-1" d="M271.16,209.14c0-.42,0-.84,0-1.26,0-21.77-14.79-35.74-33-35.74s-33,14-33,35.74c0,.42,0,.84,0,1.26Z"/><rect class="cls-1" x="1827.56" y="0.45" width="3.24" height="197.74" transform="translate(3658.37 198.63) rotate(-180)"/><ellipse class="cls-2" cx="1829.18" cy="238.97" rx="15.13" ry="13.98"/><path class="cls-1" d="M1791.52,239c0-.48,0-1,0-1.44,0-24.82,16.87-40.76,37.68-40.76s37.68,15.94,37.68,40.76c0,.48,0,1,0,1.44Z"/><rect class="cls-1" x="1691.48" width="2.84" height="173.38" transform="translate(3385.81 173.38) rotate(-180)"/><ellipse class="cls-2" cx="1692.91" cy="209.14" rx="13.26" ry="12.26"/><path class="cls-1" d="M1659.88,209.14c0-.42,0-.84,0-1.26,0-21.77,14.79-35.74,33-35.74s33,14,33,35.74c0,.42,0,.84,0,1.26Z"/><rect class="cls-1" y="41.55" width="1931.05" height="47.84"/></svg>