<svg id="Layer_1" data-name="Layer 1" xmlns="http://www.w3.org/2000/svg" viewBox="0 0 1522.67 252.95"><defs><style>.cls-1{fill:#202020;}.cls-2{fill:#e5d302;}</style></defs><rect class="cls-1" x="70.24" y="0.45" width="3.24" height="197.74"/><ellipse class="cls-2" cx="71.86" cy="238.97" rx="15.13" ry="13.98"/><path class="cls-1" d="M116.47,253.73c0-.48,0-1,0-1.44,0-24.82-16.87-40.75-37.68-40.75s-37.68,15.93-37.68,40.75c0,.48,0,1,0,1.44Z" transform="translate(-6.94 -14.76)"/><rect class="cls-1" x="267.94" width="2.84" height="173.38"/><ellipse class="cls-2" cx="269.37" cy="209.14" rx="13.26" ry="12.26"/><path class="cls-1" d="M309.33,223.9c0-.42,0-.84,0-1.26,0-21.77-14.79-35.74-33-35.74s-33,14-33,35.74c0,.42,0,.84,0,1.26Z" transform="translate(-6.94 -14.76)"/><rect class="cls-1" x="1455.05" y="15.21" width="3.24" height="197.74" transform="translate(2906.4 213.4) rotate(-180)"/><ellipse class="cls-2" cx="1449.73" cy="238.97" rx="15.13" ry="13.98"/><path class="cls-1" d="M1419,253.73c0-.48,0-1,0-1.44,0-24.82,16.87-40.75,37.68-40.75s37.68,15.93,37.68,40.75c0,.48,0,1,0,1.44Z" transform="translate(-6.94 -14.76)"/><rect class="cls-1" x="1257.75" y="14.76" width="2.84" height="173.38" transform="translate(2511.4 188.14) rotate(-180)"/><ellipse class="cls-2" cx="1252.23" cy="209.14" rx="13.26" ry="12.26"/><path class="cls-1" d="M1226.15,223.9c0-.42,0-.84,0-1.26,0-21.77,14.79-35.74,33-35.74s33,14,33,35.74c0,.42,0,.84,0,1.26Z" transform="translate(-6.94 -14.76)"/><rect class="cls-1" y="41.55" width="1522.67" height="47.84"/></svg>