<svg id="Layer_1" data-name="Layer 1" xmlns="http://www.w3.org/2000/svg" viewBox="0 0 499.75 129.4"><defs><style>.cls-1{fill:#202020;}.cls-2{fill:#e5d302;}</style></defs><rect class="cls-1" x="26.47" width="1.79" height="119.22"/><ellipse class="cls-2" cx="27.36" cy="121.69" rx="8.34" ry="7.7"/><path class="cls-1" d="M48.37,131.12c0-.26,0-.52,0-.79,0-13.68-9.29-22.46-20.76-22.46S6.85,116.65,6.85,130.33c0,.27,0,.53,0,.79Z" transform="translate(-0.25 -9.43)"/><rect class="cls-1" x="108.87" width="1.57" height="100.26"/><ellipse class="cls-2" cx="109.65" cy="98.87" rx="7.31" ry="6.38"/><path class="cls-1" d="M128.1,108.3c0-.21,0-.43,0-.65,0-11.33-8.15-18.6-18.2-18.6S91.7,96.32,91.7,107.65c0,.22,0,.44,0,.65Z" transform="translate(-0.25 -9.43)"/><rect class="cls-1" x="471.85" width="1.78" height="119.22"/><ellipse class="cls-2" cx="472.74" cy="121.69" rx="8.34" ry="7.7"/><path class="cls-1" d="M452.24,131.12c0-.26,0-.52,0-.79,0-13.68,9.29-22.46,20.76-22.46s20.76,8.78,20.76,22.46c0,.27,0,.53,0,.79Z" transform="translate(-0.25 -9.43)"/><rect class="cls-1" x="389.67" width="1.57" height="100.26"/><ellipse class="cls-2" cx="390.45" cy="98.87" rx="7.31" ry="6.38"/><path class="cls-1" d="M372.51,108.3c0-.21,0-.43,0-.65,0-11.33,8.15-18.6,18.2-18.6s18.21,7.27,18.21,18.6c0,.22,0,.44,0,.65Z" transform="translate(-0.25 -9.43)"/><rect class="cls-1" y="27.78" width="499.75" height="16.11"/></svg>