<svg id="Layer_1" data-name="Layer 1" xmlns="http://www.w3.org/2000/svg" viewBox="0 0 959.48 517.08"><defs><style>.cls-1{fill:#d78247;}.cls-1,.cls-2,.cls-4{stroke:#010101;}.cls-1,.cls-11,.cls-12,.cls-2,.cls-4,.cls-8,.cls-9{stroke-miterlimit:10;}.cls-1,.cls-4{stroke-width:2px;}.cls-2{fill:none;}.cls-3{fill:#010101;}.cls-4{fill:#fced5d;}.cls-5{fill:#72b95b;}.cls-6{fill:#1d8636;}.cls-7{fill:#37a646;}.cls-11,.cls-8{fill:#ec6363;}.cls-8,.cls-9{stroke:#050506;}.cls-12,.cls-9{fill:#ed7073;}.cls-10{fill:#8ca12f;}.cls-11,.cls-12{stroke:#020303;}</style></defs><path class="cls-1" d="M233,534.29s-65.31-328.63,7.26-509c0,0,43.54,82.93,56,95.37,0,0,145.14-14.51,194.9-2.07,0,0,10.64-74.64,14.65-93.3,0,0,57.92,107.82,82.8,296.5,0,0,46.66,176.24,46.66,214.6" transform="translate(-26.61 -22.4)"/><path class="cls-2" d="M610.67,483.31" transform="translate(-26.61 -22.4)"/><rect class="cls-3" x="20.8" y="508.79" width="938.68" height="8.29"/><path class="cls-4" d="M249.64,222.64l119.7-5.25s10.51,65-57,68S249.64,222.64,249.64,222.64Z" transform="translate(-26.61 -22.4)"/><path class="cls-4" d="M414.32,217.45l119.23-11.8s14.05,64.35-53.17,71S414.32,217.45,414.32,217.45Z" transform="translate(-26.61 -22.4)"/><path class="cls-3" d="M313.24,219.84c1.63,5.49,2.75,16.62,2.75,29.44,0,18.3-2.27,33.14-5.09,33.14s-5.1-14.84-5.1-33.14c0-12.65,1.09-23.64,2.7-29.22Z" transform="translate(-26.61 -22.4)"/><path class="cls-3" d="M480.26,210.91c1.81,5.86,3.53,15.65,4.49,26.79,1.59,18.22.6,33.2-2.21,33.45s-6.36-14.34-7.93-32.56c-1-11.09-1-21-.22-27.08Z" transform="translate(-26.61 -22.4)"/><path class="cls-5" d="M170.11,315.59S146.2,325.78,137.43,363c-8.68,36.81-25.39,56.65-30.38,54.22s-4.29-28.94,12.31-63S170.11,315.59,170.11,315.59Z" transform="translate(-26.61 -22.4)"/><path class="cls-6" d="M96.28,479.38c.76-6.52,1.65-13,2.62-19.43s2-12.9,3.16-19.33c2.29-12.85,4.93-25.64,8.1-38.31,1.59-6.33,3.31-12.63,5.23-18.87,1-3.12,2-6.22,3-9.31s2.22-6.14,3.43-9.17a129.37,129.37,0,0,1,8.48-17.64,65.55,65.55,0,0,1,5.56-8.06,37.51,37.51,0,0,1,7-6.78,37.35,37.35,0,0,0-6.84,6.92,64.44,64.44,0,0,0-5.34,8.14,128.74,128.74,0,0,0-8,17.74q-1.7,4.56-3.2,9.2t-2.81,9.34c-1.77,6.25-3.35,12.56-4.79,18.9-2.87,12.68-5.21,25.49-7.2,38.34q-1.49,9.63-2.72,19.31c-.81,6.44-1.56,12.92-2.16,19.36Z" transform="translate(-26.61 -22.4)"/><path class="cls-7" d="M137.83,276.51s-22.05,17.7-20.31,59.23c1.72,41.09-10,66.77-15.89,65.69s-13-29-5.61-69.6S137.83,276.51,137.83,276.51Z" transform="translate(-26.61 -22.4)"/><path class="cls-5" d="M185.21,392s-15.15-.27-25.48,17.67c-10.22,17.75-22.62,24.42-25.13,21.9s1.67-16.63,16-31S185.21,392,185.21,392Z" transform="translate(-26.61 -22.4)"/><path class="cls-7" d="M165,366.77s-14.07,11-21.31,36.49c-7.16,25.25-20.49,37.41-24.39,35.07s-3.12-21.19,10.25-43.54A64,64,0,0,1,165,366.77Z" transform="translate(-26.61 -22.4)"/><path class="cls-6" d="M104.94,478.31c-.72-7.11-1.3-14.18-1.83-21.28s-1-14.19-1.34-21.29c-.74-14.21-1.17-28.43-1.16-42.65s.48-28.46,1.88-42.62a205.88,205.88,0,0,1,3.09-21.1c.72-3.48,1.56-6.94,2.6-10.34A65.41,65.41,0,0,1,112,309.1a66,66,0,0,0-3.65,10c-1,3.41-1.73,6.88-2.38,10.36a205.06,205.06,0,0,0-2.64,21.1c-1.1,14.14-1.25,28.34-1,42.52s1,28.35,2,42.5q.77,10.6,1.77,21.2c.67,7.05,1.41,14.12,2.26,21.13Z" transform="translate(-26.61 -22.4)"/><path class="cls-5" d="M66.05,304.76s18.45,14.82,17,49.57c-1.44,34.4,8.32,55.89,13.29,55s10.88-24.31,4.71-58.26S66.05,304.76,66.05,304.76Z" transform="translate(-26.61 -22.4)"/><path class="cls-7" d="M31.92,332.48s22,8.63,31,42.23c8.9,33.26,24.64,50.85,29.12,48.5s3.11-26.45-12.92-57S31.92,332.48,31.92,332.48Z" transform="translate(-26.61 -22.4)"/><path class="cls-5" d="M26.61,394s17.46-.12,28.76,20.65c11.18,20.56,25.24,28.39,28.21,25.53s-1.36-19.17-17.43-35.89S26.61,394,26.61,394Z" transform="translate(-26.61 -22.4)"/><path class="cls-6" d="M110.43,477.37c3.67-7.61,7.52-15.09,11.5-22.52s8.13-14.76,12.48-22,8.94-14.29,14-21a103,103,0,0,1,8.14-9.67,47.08,47.08,0,0,1,4.67-4.26,27.29,27.29,0,0,1,2.59-1.81,17.68,17.68,0,0,1,2.84-1.37,17.17,17.17,0,0,0-2.78,1.47,25.64,25.64,0,0,0-2.51,1.88,47.7,47.7,0,0,0-4.49,4.39,102.73,102.73,0,0,0-7.74,9.89c-4.8,6.87-9.09,14.09-13.19,21.4s-7.94,14.78-11.65,22.3-7.28,15.12-10.64,22.77Z" transform="translate(-26.61 -22.4)"/><path class="cls-6" d="M112,479.9c0-1.19.11-2.32.19-3.47s.18-2.29.28-3.43c.2-2.28.46-4.56.73-6.83q.85-6.81,2.1-13.55A203.59,203.59,0,0,1,122,426.07q2.18-6.49,4.84-12.8c1.8-4.19,3.82-8.29,6-12.29a115,115,0,0,1,7.39-11.48,95.29,95.29,0,0,1,8.93-10.3,96.08,96.08,0,0,0-8.57,10.55,116.4,116.4,0,0,0-7,11.65q-3.09,6.06-5.57,12.37t-4.38,12.83a203,203,0,0,0-5.81,26.46q-1,6.7-1.63,13.44c-.19,2.25-.38,4.49-.5,6.74-.07,1.13-.12,2.25-.16,3.37s-.08,2.26-.09,3.34Z" transform="translate(-26.61 -22.4)"/><path class="cls-6" d="M89.46,481c.82-6.23,1.53-12.51,2.2-18.78s1.25-12.56,1.77-18.85c1-12.58,1.84-25.19,2.21-37.8s.37-25.26-.52-37.85a174.39,174.39,0,0,0-2.29-18.78,87.86,87.86,0,0,0-2.19-9.2A46.89,46.89,0,0,0,87.11,331a48.14,48.14,0,0,1,3.74,8.7,88.51,88.51,0,0,1,2.41,9.18A170.29,170.29,0,0,1,96,367.64c1.19,12.61,1.48,25.29,1.41,37.95s-.57,25.32-1.33,38q-.57,9.48-1.34,18.95c-.52,6.31-1.09,12.61-1.77,18.93Z" transform="translate(-26.61 -22.4)"/><path class="cls-6" d="M107.59,484.16q-4.2-17.28-9-34.47c-3.19-11.45-6.54-22.85-10.15-34.17S81,393,76.59,381.91c-2.18-5.53-4.53-11-7.13-16.33-.63-1.35-1.33-2.65-2-4S66,359,65.3,357.71s-1.54-2.54-2.33-3.81c-.2-.31-.38-.63-.6-.93l-.66-.91-1.3-1.81L61.76,352l.67.89c.23.3.42.62.63.92.82,1.24,1.69,2.46,2.43,3.75s1.55,2.54,2.25,3.86,1.45,2.6,2.11,3.93c2.75,5.29,5.23,10.71,7.56,16.19,4.67,11,8.81,22.14,12.72,33.39s7.54,22.59,11,34,6.77,22.83,9.87,34.35Z" transform="translate(-26.61 -22.4)"/><path class="cls-6" d="M97.64,480.67c-.54-1.92-1.14-3.88-1.75-5.82S94.63,471,94,469.05q-2-5.78-4.22-11.47a227.28,227.28,0,0,0-10.11-22.26A131.11,131.11,0,0,0,66.5,414.73c-1.26-1.6-2.6-3.15-4-4.64s-2.82-2.95-4.35-4.31a46.22,46.22,0,0,0-10-7,46.3,46.3,0,0,1,10.33,6.64c1.59,1.31,3.09,2.72,4.54,4.18s2.85,3,4.18,4.54a132.24,132.24,0,0,1,14,20.3,229.49,229.49,0,0,1,11,22.09q2.47,5.67,4.68,11.44Q98,470.88,99,473.79c.7,1.95,1.37,3.88,2,5.89Z" transform="translate(-26.61 -22.4)"/><path class="cls-8" d="M60.37,456.23h83.39l-6,72.74a3.51,3.51,0,0,1-3.2,3.49h-65A3.52,3.52,0,0,1,66.33,529Z" transform="translate(-26.61 -22.4)"/><path class="cls-9" d="M149,461.7H55.12a2,2,0,0,1-1.82-1.84l-1.38-9.71a2.13,2.13,0,0,1,1.82-2.6h96.65a2.13,2.13,0,0,1,1.82,2.6l-1.38,9.71A2,2,0,0,1,149,461.7Z" transform="translate(-26.61 -22.4)"/><path class="cls-10" d="M188.14,497.46q0,1.71-.06,3.39c-.5,13.55-4,25.68-9.24,34.38H139.1c-5.29-8.7-8.75-20.83-9.24-34.38q-.06-1.68-.06-3.39c0-28.48,13-51.57,29.17-51.57S188.14,469,188.14,497.46Z" transform="translate(-26.61 -22.4)"/><path class="cls-11" d="M192.73,500.85l-4.83,32.8c-.13.89-1.25,1.58-2.59,1.58H132.63c-1.35,0-2.47-.69-2.6-1.58l-4.83-32.8Z" transform="translate(-26.61 -22.4)"/><path class="cls-12" d="M197,505.27H121a1.6,1.6,0,0,1-1.47-1.49l-1.12-7.86a1.73,1.73,0,0,1,1.47-2.11h78.28a1.73,1.73,0,0,1,1.47,2.11l-1.12,7.86A1.61,1.61,0,0,1,197,505.27Z" transform="translate(-26.61 -22.4)"/><ellipse class="cls-3" cx="128.23" cy="485.09" rx="2.21" ry="3.91" transform="translate(-400.12 460.14) rotate(-74.9)"/><ellipse class="cls-3" cx="131.62" cy="472.85" rx="2.21" ry="3.91" transform="translate(-381.9 388.6) rotate(-67.21)"/><ellipse class="cls-3" cx="136.57" cy="461.12" rx="2.21" ry="3.91" transform="matrix(0.55, -0.83, 0.83, 0.55, -350, 298.3)"/><ellipse class="cls-3" cx="140.69" cy="482.4" rx="1.82" ry="3.22" transform="translate(-385.15 402.81) rotate(-67.21)"/><ellipse class="cls-3" cx="114.08" cy="468.34" rx="3.22" ry="1.82"/><ellipse class="cls-3" cx="143.68" cy="471.49" rx="1.82" ry="3.22" transform="translate(-355.47 308.88) rotate(-56.53)"/><ellipse class="cls-3" cx="148.53" cy="461.12" rx="1.82" ry="3.22" transform="translate(-329.63 263.23) rotate(-50.91)"/><ellipse class="cls-3" cx="159.21" cy="457.48" rx="3.22" ry="1.82" transform="translate(-330.62 576.7) rotate(-87.81)"/><ellipse class="cls-3" cx="159.21" cy="470.76" rx="3.22" ry="1.82" transform="translate(-343.9 589.48) rotate(-87.81)"/><ellipse class="cls-3" cx="158.69" cy="484.3" rx="3.22" ry="1.82" transform="translate(-357.93 601.99) rotate(-87.81)"/><ellipse class="cls-3" cx="177.51" cy="482.4" rx="3.22" ry="1.82" transform="matrix(0.92, -0.39, 0.39, 0.92, -199.64, 84.04)"/><ellipse class="cls-3" cx="176.47" cy="490.74" rx="1.82" ry="3.22" transform="translate(-367.59 533.26) rotate(-77.37)"/><ellipse class="cls-3" cx="174.52" cy="471.49" rx="3.22" ry="1.82" transform="translate(-257.72 152.07) rotate(-33.47)"/><ellipse class="cls-3" cx="169.66" cy="461.12" rx="3.22" ry="1.82" transform="translate(-279.4 187.82) rotate(-39.09)"/><ellipse class="cls-3" cx="144.9" cy="450.18" rx="2.21" ry="3.91" transform="translate(-251.79 133.34) rotate(-33.65)"/><ellipse class="cls-3" cx="189.44" cy="485.09" rx="3.91" ry="2.21" transform="translate(-146.42 43.69) rotate(-15.1)"/><ellipse class="cls-3" cx="186.06" cy="472.85" rx="3.91" ry="2.21" transform="translate(-195.27 86.61) rotate(-22.79)"/><ellipse class="cls-3" cx="181.11" cy="461.12" rx="3.91" ry="2.21" transform="translate(-250.91 153.98) rotate(-33.47)"/><ellipse class="cls-3" cx="172.77" cy="450.18" rx="3.91" ry="2.21" transform="translate(-324.32 322.14) rotate(-56.35)"/><ellipse class="cls-3" cx="132.49" cy="421.67" rx="2.21" ry="3.91"/></svg>