<svg id="Layer_1" data-name="Layer 1" xmlns="http://www.w3.org/2000/svg" viewBox="0 0 665.59 505.27"><defs><style>.cls-1{fill:#d78247;}.cls-1,.cls-2,.cls-3,.cls-4,.cls-5,.cls-6,.cls-7{stroke:#010101;}.cls-1,.cls-2,.cls-3,.cls-4,.cls-5,.cls-6{stroke-miterlimit:10;stroke-width:2px;}.cls-2{fill:#7c3c11;}.cls-3{fill:#e5e5e4;}.cls-4{fill:#bcbcbb;}.cls-5,.cls-7{fill:none;}.cls-6{fill:#fff;}.cls-7{stroke-linecap:round;stroke-linejoin:round;stroke-width:3px;}</style></defs><path class="cls-1" d="M191.58,294.41S172,69.12,194.85,22.31c0,0,18.5,26.13,34.83,44.63,0,0,121.9-9.8,151.28-2.18,0,0,15.24-39.18,17.42-51.15,0,0,68.57,128.43,56.59,287.33" transform="translate(-14.1 -10.6)"/><path class="cls-2" d="M15.26,493.59s359.65,47.89,663.07,0l-81.86-225.3C287.36,318.36,56.62,258.5,56.62,258.5Z" transform="translate(-14.1 -10.6)"/><path class="cls-3" d="M379.17,460.09l-62.67,3.15q-16.22.81-32.46,0l-63.45-3.16a36.8,36.8,0,0,1-36.8-36.79V360.59a36.8,36.8,0,0,1,36.8-36.79L290.81,328a145.38,145.38,0,0,0,17.34,0l71-4.24A36.79,36.79,0,0,1,416,360.59V423.3A36.79,36.79,0,0,1,379.17,460.09Z" transform="translate(-14.1 -10.6)"/><path class="cls-4" d="M206,365.8s90.33,11.88,183,1.58" transform="translate(-14.1 -10.6)"/><path class="cls-4" d="M206,391.15s90.33,11.89,183,1.59" transform="translate(-14.1 -10.6)"/><path class="cls-4" d="M208.36,419.68s90.33,11.89,183,1.58" transform="translate(-14.1 -10.6)"/><path class="cls-4" d="M247.18,354.7s-7.92,70.53,0,86.37" transform="translate(-14.1 -10.6)"/><path class="cls-5" d="M347,354.7s7.93,70.53,0,86.37" transform="translate(-14.1 -10.6)"/><path class="cls-5" d="M295.52,357.08s3.17,70.11,2,88.54" transform="translate(-14.1 -10.6)"/><ellipse class="cls-3" cx="470.27" cy="377.96" rx="28.3" ry="35.37"/><path class="cls-4" d="M460.51,392.81s12.2,5.25,44.5,0" transform="translate(-14.1 -10.6)"/><path class="cls-4" d="M486,419.49s-5.22-8.79-3.22-24.41" transform="translate(-14.1 -10.6)"/><path class="cls-5" d="M484.36,423.93s11.14,3,3.23,20.5,2.84,19.12,2.84,19.12" transform="translate(-14.1 -10.6)"/><circle class="cls-6" cx="216.67" cy="153.2" r="55.51"/><circle class="cls-6" cx="353.81" cy="153.2" r="55.51"/><line class="cls-5" x1="409.19" y1="149.55" x2="427.93" y2="128.24"/><path class="cls-5" d="M286.27,163.81s14.15-7.62,26.12,0" transform="translate(-14.1 -10.6)"/><path class="cls-7" d="M201.46,144.39s22.81-33.8,53.1-4.65c22.32,21.48,8.16,48.16-5.36,54.08s-45.21,1.27-43.52-25.77,26.57-21.91,31.27-20.28,15.21,10.14,11.83,26.19c0,0-7.05,9-14.93,8.32s-11.27-10-11.27-11.7" transform="translate(-14.1 -10.6)"/><path class="cls-7" d="M335.33,144.39s22.81-33.8,53.1-4.65c22.32,21.48,8.16,48.16-5.36,54.08s-45.2,1.27-43.51-25.77,26.56-21.91,31.26-20.28S386,157.91,382.65,174c0,0-7,9-14.93,8.32s-11.27-10-11.27-11.7" transform="translate(-14.1 -10.6)"/></svg>