<svg id="Layer_1" data-name="Layer 1" xmlns="http://www.w3.org/2000/svg" viewBox="0 0 816.04 619.01"><defs><style>.cls-1{fill:#d78247;}.cls-1,.cls-2,.cls-3,.cls-4,.cls-5,.cls-6,.cls-7{stroke:#010101;}.cls-1,.cls-2,.cls-3,.cls-4,.cls-5,.cls-6{stroke-miterlimit:10;stroke-width:2px;}.cls-2{fill:#7c3c11;}.cls-3{fill:#e5e5e4;}.cls-4{fill:#bcbcbb;}.cls-5,.cls-7{fill:none;}.cls-6{fill:#fff;}.cls-7{stroke-linecap:round;stroke-linejoin:round;stroke-width:3px;}</style></defs><path class="cls-1" d="M238.88,357.05s-24-276.42,4-333.84c0,0,22.7,32.05,42.73,54.75,0,0,149.56-12,185.61-2.67,0,0,18.7-48.08,21.37-62.76,0,0,84.13,157.57,69.44,352.53" transform="translate(-21.39 -9.52)"/><path class="cls-2" d="M22.55,601.42s441.25,58.75,813.52,0L735.63,325C356.39,386.42,73.3,313,73.3,313Z" transform="translate(-21.39 -9.52)"/><path class="cls-3" d="M469,560.31l-76.88,3.87q-19.9,1-39.83,0l-77.85-3.88a45.14,45.14,0,0,1-45.14-45.14V438.24a45.14,45.14,0,0,1,45.14-45.14l86.16,5.19a177.58,177.58,0,0,0,21.27,0L469,393.1a45.14,45.14,0,0,1,45.14,45.14v76.93A45.14,45.14,0,0,1,469,560.31Z" transform="translate(-21.39 -9.52)"/><path class="cls-4" d="M256.55,444.63s110.82,14.58,224.57,1.94" transform="translate(-21.39 -9.52)"/><path class="cls-4" d="M256.55,475.74s110.82,14.58,224.57,1.94" transform="translate(-21.39 -9.52)"/><path class="cls-4" d="M259.46,510.73S370.29,525.32,484,512.68" transform="translate(-21.39 -9.52)"/><path class="cls-4" d="M307.1,431s-9.72,86.52,0,106" transform="translate(-21.39 -9.52)"/><path class="cls-5" d="M429.59,431s9.73,86.52,0,106" transform="translate(-21.39 -9.52)"/><path class="cls-5" d="M366.4,433.93s3.89,86,2.43,108.63" transform="translate(-21.39 -9.52)"/><circle class="cls-6" cx="265.57" cy="187.28" r="68.1"/><circle class="cls-6" cx="433.82" cy="187.28" r="68.1"/><line class="cls-5" x1="501.77" y1="182.8" x2="524.76" y2="156.66"/><path class="cls-5" d="M355.06,196.8s17.36-9.34,32.05,0" transform="translate(-21.39 -9.52)"/><path class="cls-7" d="M251,173s28-41.47,65.15-5.7c27.38,26.35,10,59.09-6.58,66.35s-55.46,1.55-53.39-31.62,32.6-26.89,38.36-24.88,18.66,12.44,14.51,32.13c0,0-8.64,11.09-18.31,10.21s-13.82-12.28-13.82-14.35" transform="translate(-21.39 -9.52)"/><path class="cls-7" d="M415.25,173s28-41.47,65.15-5.7c27.38,26.35,10,59.09-6.58,66.35s-55.46,1.55-53.39-31.62,32.6-26.89,38.36-24.88,18.66,12.44,14.51,32.13c0,0-8.64,11.09-18.31,10.21s-13.83-12.28-13.83-14.35" transform="translate(-21.39 -9.52)"/></svg>