<svg id="Layer_1" data-name="Layer 1" xmlns="http://www.w3.org/2000/svg" viewBox="0 0 422.26 470.45"><defs><style>.cls-1{fill:#d78247;}.cls-1,.cls-2,.cls-4,.cls-5,.cls-6{stroke:#010101;}.cls-1,.cls-2,.cls-4,.cls-5{stroke-miterlimit:10;stroke-width:2px;}.cls-2{fill:#fced5d;}.cls-3{fill:#010101;}.cls-4{fill:#fff;}.cls-5,.cls-6{fill:none;}.cls-6{stroke-linecap:round;stroke-linejoin:round;stroke-width:3px;}</style></defs><path class="cls-1" d="M60.63,494.23s-42-373.17,0-467.59l65.72,85.09s133.11-23.5,220.69,0l45.39-85.09s63.2,243.59,33.2,467.59" transform="translate(-27.78 -23.91)"/><path class="cls-2" d="M71.26,233.88s3.37-25.11,57.33-41.86C172.34,178.43,203,227.87,213,247.08c2.28,4.36,1.61,9.66-1.55,12.57-13.21,12.2-51.34,39-106.15,7.45-13.38-7.72-25-19.3-34-33.22Z" transform="translate(-27.78 -23.91)"/><path class="cls-2" d="M403.72,237.57s-1.92-25.24-53.49-43.78c-44.47-16-78.35,39.84-86.84,55.53a6.32,6.32,0,0,0,.41,7c9.52,10.82,46.18,45.23,105.05,13.34,13.43-7.28,25.37-18.49,34.87-32.12Z" transform="translate(-27.78 -23.91)"/><ellipse class="cls-3" cx="117.49" cy="211.81" rx="13.14" ry="43.99"/><ellipse class="cls-3" cx="300.49" cy="212.81" rx="13.14" ry="43.99"/><circle class="cls-4" cx="95.01" cy="223.2" r="94.01"/><circle class="cls-4" cx="327.26" cy="223.2" r="94.01"/><path class="cls-5" d="M216.79,247.12s24-12.91,44.24,0" transform="translate(-27.78 -23.91)"/><path class="cls-6" d="M73.16,214.23s38.63-57.24,89.93-7.87c37.79,36.37,13.81,81.57-9.08,91.58s-76.56,2.15-73.7-43.64,45-37.11,52.95-34.35,25.76,17.18,20,44.36c0,0-11.93,15.31-25.28,14.1s-19.08-17-19.08-19.82" transform="translate(-27.78 -23.91)"/><path class="cls-6" d="M299.88,214.23s38.63-57.24,89.93-7.87c37.79,36.37,13.81,81.57-9.08,91.58s-76.56,2.15-73.7-43.64,45-37.11,53-34.35,25.76,17.18,20,44.36c0,0-11.93,15.31-25.28,14.1s-19.08-17-19.08-19.82" transform="translate(-27.78 -23.91)"/></svg>