<svg id="Layer_1" data-name="Layer 1" xmlns="http://www.w3.org/2000/svg" viewBox="0 0 498.66 453.96"><defs><style>.cls-1{fill:#1f1f1f;}.cls-1,.cls-2,.cls-3,.cls-4{stroke:#010101;stroke-miterlimit:10;stroke-width:2px;}.cls-2{fill:#2e2e2e;}.cls-3{fill:#e5e5e4;}.cls-4{fill:none;}</style></defs><path class="cls-1" d="M512.84,170.4,508.45,66.53a51.12,51.12,0,0,0-51.12-51.11l-200.52-5-185.51,5A51.11,51.11,0,0,0,20.19,66.53l-2.56,63.19Q15.2,190.61,18,251.54l2.24,49.54A51.11,51.11,0,0,0,71.3,352.19l162.85,6.14c2.61.1,5.23.19,7.83.25,1.22,7.82,2.92,23.05,2.92,46.67-50.65,3.16-89.5,6.34-89.5,28.32,0,24.2,47.08,28.8,105.16,28.8s105.17-4.6,105.17-28.8c0-22.16-39.49-25.46-90.76-28.38,0-23.22,1.66-38.32,2.87-46.25q14.54-.1,29.06-.7l150.43-6.05a51.12,51.12,0,0,0,51.12-51.11l4.37-101.36Q513.46,185.07,512.84,170.4Zm-16.05,28.34-4.09,94.81a47.81,47.81,0,0,1-47.81,47.81L304.18,347q-34,1.38-68.06.09L83.81,341.36A47.81,47.81,0,0,1,36,293.55l-2.1-46.33q-2.58-56.94-.28-113.94L36,74.17A47.82,47.82,0,0,1,83.81,26.36l173.51-4.68,187.57,4.68A47.82,47.82,0,0,1,492.7,74.17l4.11,97.15Q497.4,185,496.79,198.74Z" transform="translate(-15.48 -9.41)"/><path class="cls-2" d="M496.79,198.74l-4.09,94.81a47.81,47.81,0,0,1-47.81,47.81L304.18,347q-34,1.38-68.06.09L83.81,341.36A47.81,47.81,0,0,1,36,293.55l-2.1-46.33q-2.58-56.94-.28-113.94L36,74.17A47.82,47.82,0,0,1,83.81,26.36l173.51-4.68,187.57,4.68A47.82,47.82,0,0,1,492.7,74.17l4.11,97.15Q497.4,185,496.79,198.74Z" transform="translate(-15.48 -9.41)"/><path class="cls-3" d="M496.79,198.74l-4.09,94.81a47.81,47.81,0,0,1-47.81,47.81L304.18,347q-34,1.38-68.06.09L83.81,341.36A47.81,47.81,0,0,1,36,293.55l-2.1-46.33q-2.58-56.94-.28-113.94L36,74.17A47.82,47.82,0,0,1,83.81,26.36l173.51-4.68,187.57,4.68A47.82,47.82,0,0,1,492.7,74.17l4.11,97.15Q497.4,185,496.79,198.74Z" transform="translate(-15.48 -9.41)"/><line class="cls-4" x1="33.5" y1="66.1" x2="460.8" y2="66.1"/><line class="cls-4" x1="123.64" y1="308.98" x2="123.64" y2="66.1"/><line class="cls-4" x1="42.26" y1="53.58" x2="65.94" y2="53.58"/><line class="cls-4" x1="72.31" y1="53.58" x2="95.99" y2="53.58"/><line class="cls-4" x1="103.61" y1="53.58" x2="127.29" y2="53.58"/><line class="cls-4" x1="131.15" y1="53.58" x2="154.83" y2="53.58"/><line class="cls-4" x1="161.2" y1="53.58" x2="184.88" y2="53.58"/><line class="cls-4" x1="42.26" y1="79.66" x2="95.99" y2="79.66"/><line class="cls-4" x1="42.26" y1="88.42" x2="95.99" y2="88.42"/><line class="cls-4" x1="42.26" y1="97.18" x2="95.99" y2="97.18"/><line class="cls-4" x1="42.26" y1="105.95" x2="95.99" y2="105.95"/><line class="cls-4" x1="42.26" y1="114.71" x2="95.99" y2="114.71"/><line class="cls-4" x1="42.26" y1="123.47" x2="95.99" y2="123.47"/><line class="cls-4" x1="142.99" y1="84.23" x2="280.84" y2="84.23"/><line class="cls-4" x1="142.99" y1="119.28" x2="280.84" y2="119.28"/><line class="cls-4" x1="156.76" y1="101.86" x2="352.75" y2="101.86"/><line class="cls-4" x1="159.95" y1="138.72" x2="427.21" y2="138.72"/><line class="cls-4" x1="173.72" y1="158.04" x2="346.27" y2="158.04"/><line class="cls-4" x1="159.95" y1="183.51" x2="235.06" y2="183.79"/><line class="cls-4" x1="148.68" y1="202.57" x2="372.29" y2="202.57"/><line class="cls-4" x1="162.45" y1="225.32" x2="316.17" y2="225.32"/><line class="cls-4" x1="176.22" y1="246.22" x2="424.65" y2="246.22"/><line class="cls-4" x1="162.45" y1="269.74" x2="281.39" y2="270.17"/><line class="cls-4" x1="148.68" y1="293.25" x2="340.94" y2="293.25"/></svg>